# xmcd CD database file
# Copyright (C) 1993-1996 Ti Kan
#
# Track frame offsets:
# 150
# 11335
# 21115
# 31815
# 42590
# 52085
# 62495
# 75590
# 83850
# 94680
# 107035
# 117635
# 128435
# 141292
# 153770
# 163442
# 173580
# 182907
# 200582
# 210332
# 225260
# 234640
# 248000
# 262767
# 278460
# 290955
# 300385
# 310645
# 326167
#
# Disc length: 4545 seconds
#
# Revision: 0
# Processed by: cddbd v1.4b41PL1 Copyright (c) Steve Scherf et al.
# Submitted via: inCDius 1.1b5
#
DISCID=8011bf1d
DTITLE=Johnny Duncan - Last Train To San Fernando -Disc 1
DYEAR=1900
DGENRE=
TTITLE0=Last Train To San Fernando
TTITLE1=Rock - A - Billy Baby
TTITLE2=Footprints In The Snow
TTITLE3=Blue Blue Heartache
TTITLE4=Jig Along Home
TTITLE5=If You Love Me Baby
TTITLE6=Goodnight Irene
TTITLE7=Freight Train Blues
TTITLE8=Press On
TTITLE9=Johnny's Blue Yodel
TTITLE10=Out Of Business
TTITLE11=Get Along Home, Cindy
TTITLE12=Old Blue
TTITLE13=Calamity Mose
TTITLE14=Just A Little Lovin'
TTITLE15=Which Way Did He Go
TTITLE16=More And More
TTITLE17=Just A Closer Walk With Thee
TTITLE18=Travelin' Blues
TTITLE19=St. James Infirmary
TTITLE20=Mind Your Own Business
TTITLE21=Kaw - Liga
TTITLE22=Ella Speed
TTITLE23=Doin' My Time 
TTITLE24=Where Could I Go
TTITLE25=Can't You Line 'Em
TTITLE26=Gipsy Davy
TTITLE27=Blue Yodel
TTITLE28=Blowin' Down This Old Dusty Road
EXTD=
EXTT0=
EXTT1=
EXTT2=
EXTT3=
EXTT4=
EXTT5=
EXTT6=
EXTT7=
EXTT8=
EXTT9=
EXTT10=
EXTT11=
EXTT12=
EXTT13=
EXTT14=
EXTT15=
EXTT16=
EXTT17=
EXTT18=
EXTT19=
EXTT20=
EXTT21=
EXTT22=
EXTT23=
EXTT24=
EXTT25=
EXTT26=
EXTT27=
EXTT28=
PLAYORDER=
